G04 EAGLE Gerber RS-274X export*
G75*
%MOMM*%
%FSLAX34Y34*%
%LPD*%
%IN*%
%IPPOS*%
%AMOC8*
5,1,8,0,0,1.08239X$1,22.5*%
G01*
%ADD10C,0.254000*%


D10*
X0Y60000D02*
X228Y54771D01*
X912Y49581D01*
X2044Y44471D01*
X3618Y39479D01*
X5622Y34643D01*
X8038Y30000D01*
X10851Y25585D01*
X14037Y21433D01*
X17574Y17574D01*
X21433Y14037D01*
X25585Y10851D01*
X30000Y8038D01*
X34643Y5622D01*
X39479Y3618D01*
X44471Y2044D01*
X49581Y912D01*
X54771Y228D01*
X60000Y0D01*
X1120000Y0D01*
X1125229Y228D01*
X1130419Y912D01*
X1135529Y2044D01*
X1140521Y3618D01*
X1145357Y5622D01*
X1150000Y8038D01*
X1154415Y10851D01*
X1158567Y14037D01*
X1162426Y17574D01*
X1165963Y21433D01*
X1169149Y25585D01*
X1171962Y30000D01*
X1174378Y34643D01*
X1176382Y39479D01*
X1177956Y44471D01*
X1179088Y49581D01*
X1179772Y54771D01*
X1180000Y60000D01*
X1180000Y880000D01*
X1179772Y885229D01*
X1179088Y890419D01*
X1177956Y895529D01*
X1176382Y900521D01*
X1174378Y905357D01*
X1171962Y910000D01*
X1169149Y914415D01*
X1165963Y918567D01*
X1162426Y922426D01*
X1158567Y925963D01*
X1154415Y929149D01*
X1150000Y931962D01*
X1145357Y934378D01*
X1140521Y936382D01*
X1135529Y937956D01*
X1130419Y939088D01*
X1125229Y939772D01*
X1120000Y940000D01*
X60000Y940000D01*
X54771Y939772D01*
X49581Y939088D01*
X44471Y937956D01*
X39479Y936382D01*
X34643Y934378D01*
X30000Y931962D01*
X25585Y929149D01*
X21433Y925963D01*
X17574Y922426D01*
X14037Y918567D01*
X10851Y914415D01*
X8038Y910000D01*
X5622Y905357D01*
X3618Y900521D01*
X2044Y895529D01*
X912Y890419D01*
X228Y885229D01*
X0Y880000D01*
X0Y60000D01*
X1135000Y46164D02*
X1135000Y47236D01*
X1134924Y48304D01*
X1134771Y49365D01*
X1134543Y50412D01*
X1134241Y51440D01*
X1133867Y52444D01*
X1133422Y53419D01*
X1132908Y54359D01*
X1132329Y55260D01*
X1131687Y56118D01*
X1130985Y56928D01*
X1130228Y57685D01*
X1129418Y58387D01*
X1128560Y59029D01*
X1127659Y59608D01*
X1126719Y60122D01*
X1125744Y60567D01*
X1124740Y60941D01*
X1123712Y61243D01*
X1122665Y61471D01*
X1121604Y61624D01*
X1120536Y61700D01*
X1119464Y61700D01*
X1118396Y61624D01*
X1117335Y61471D01*
X1116288Y61243D01*
X1115260Y60941D01*
X1114256Y60567D01*
X1113281Y60122D01*
X1112341Y59608D01*
X1111440Y59029D01*
X1110582Y58387D01*
X1109772Y57685D01*
X1109015Y56928D01*
X1108313Y56118D01*
X1107671Y55260D01*
X1107092Y54359D01*
X1106578Y53419D01*
X1106133Y52444D01*
X1105759Y51440D01*
X1105457Y50412D01*
X1105229Y49365D01*
X1105076Y48304D01*
X1105000Y47236D01*
X1105000Y46164D01*
X1105076Y45096D01*
X1105229Y44035D01*
X1105457Y42988D01*
X1105759Y41960D01*
X1106133Y40956D01*
X1106578Y39981D01*
X1107092Y39041D01*
X1107671Y38140D01*
X1108313Y37282D01*
X1109015Y36472D01*
X1109772Y35715D01*
X1110582Y35013D01*
X1111440Y34371D01*
X1112341Y33792D01*
X1113281Y33278D01*
X1114256Y32833D01*
X1115260Y32459D01*
X1116288Y32157D01*
X1117335Y31929D01*
X1118396Y31776D01*
X1119464Y31700D01*
X1120536Y31700D01*
X1121604Y31776D01*
X1122665Y31929D01*
X1123712Y32157D01*
X1124740Y32459D01*
X1125744Y32833D01*
X1126719Y33278D01*
X1127659Y33792D01*
X1128560Y34371D01*
X1129418Y35013D01*
X1130228Y35715D01*
X1130985Y36472D01*
X1131687Y37282D01*
X1132329Y38140D01*
X1132908Y39041D01*
X1133422Y39981D01*
X1133867Y40956D01*
X1134241Y41960D01*
X1134543Y42988D01*
X1134771Y44035D01*
X1134924Y45096D01*
X1135000Y46164D01*
X1135000Y892764D02*
X1135000Y893836D01*
X1134924Y894904D01*
X1134771Y895965D01*
X1134543Y897012D01*
X1134241Y898040D01*
X1133867Y899044D01*
X1133422Y900019D01*
X1132908Y900959D01*
X1132329Y901860D01*
X1131687Y902718D01*
X1130985Y903528D01*
X1130228Y904285D01*
X1129418Y904987D01*
X1128560Y905629D01*
X1127659Y906208D01*
X1126719Y906722D01*
X1125744Y907167D01*
X1124740Y907541D01*
X1123712Y907843D01*
X1122665Y908071D01*
X1121604Y908224D01*
X1120536Y908300D01*
X1119464Y908300D01*
X1118396Y908224D01*
X1117335Y908071D01*
X1116288Y907843D01*
X1115260Y907541D01*
X1114256Y907167D01*
X1113281Y906722D01*
X1112341Y906208D01*
X1111440Y905629D01*
X1110582Y904987D01*
X1109772Y904285D01*
X1109015Y903528D01*
X1108313Y902718D01*
X1107671Y901860D01*
X1107092Y900959D01*
X1106578Y900019D01*
X1106133Y899044D01*
X1105759Y898040D01*
X1105457Y897012D01*
X1105229Y895965D01*
X1105076Y894904D01*
X1105000Y893836D01*
X1105000Y892764D01*
X1105076Y891696D01*
X1105229Y890635D01*
X1105457Y889588D01*
X1105759Y888560D01*
X1106133Y887556D01*
X1106578Y886581D01*
X1107092Y885641D01*
X1107671Y884740D01*
X1108313Y883882D01*
X1109015Y883072D01*
X1109772Y882315D01*
X1110582Y881613D01*
X1111440Y880971D01*
X1112341Y880392D01*
X1113281Y879878D01*
X1114256Y879433D01*
X1115260Y879059D01*
X1116288Y878757D01*
X1117335Y878529D01*
X1118396Y878376D01*
X1119464Y878300D01*
X1120536Y878300D01*
X1121604Y878376D01*
X1122665Y878529D01*
X1123712Y878757D01*
X1124740Y879059D01*
X1125744Y879433D01*
X1126719Y879878D01*
X1127659Y880392D01*
X1128560Y880971D01*
X1129418Y881613D01*
X1130228Y882315D01*
X1130985Y883072D01*
X1131687Y883882D01*
X1132329Y884740D01*
X1132908Y885641D01*
X1133422Y886581D01*
X1133867Y887556D01*
X1134241Y888560D01*
X1134543Y889588D01*
X1134771Y890635D01*
X1134924Y891696D01*
X1135000Y892764D01*
X75000Y892764D02*
X75000Y893836D01*
X74924Y894904D01*
X74771Y895965D01*
X74543Y897012D01*
X74241Y898040D01*
X73867Y899044D01*
X73422Y900019D01*
X72908Y900959D01*
X72329Y901860D01*
X71687Y902718D01*
X70985Y903528D01*
X70228Y904285D01*
X69418Y904987D01*
X68560Y905629D01*
X67659Y906208D01*
X66719Y906722D01*
X65744Y907167D01*
X64740Y907541D01*
X63712Y907843D01*
X62665Y908071D01*
X61604Y908224D01*
X60536Y908300D01*
X59464Y908300D01*
X58396Y908224D01*
X57335Y908071D01*
X56288Y907843D01*
X55260Y907541D01*
X54256Y907167D01*
X53281Y906722D01*
X52341Y906208D01*
X51440Y905629D01*
X50582Y904987D01*
X49772Y904285D01*
X49015Y903528D01*
X48313Y902718D01*
X47671Y901860D01*
X47092Y900959D01*
X46578Y900019D01*
X46133Y899044D01*
X45759Y898040D01*
X45457Y897012D01*
X45229Y895965D01*
X45076Y894904D01*
X45000Y893836D01*
X45000Y892764D01*
X45076Y891696D01*
X45229Y890635D01*
X45457Y889588D01*
X45759Y888560D01*
X46133Y887556D01*
X46578Y886581D01*
X47092Y885641D01*
X47671Y884740D01*
X48313Y883882D01*
X49015Y883072D01*
X49772Y882315D01*
X50582Y881613D01*
X51440Y880971D01*
X52341Y880392D01*
X53281Y879878D01*
X54256Y879433D01*
X55260Y879059D01*
X56288Y878757D01*
X57335Y878529D01*
X58396Y878376D01*
X59464Y878300D01*
X60536Y878300D01*
X61604Y878376D01*
X62665Y878529D01*
X63712Y878757D01*
X64740Y879059D01*
X65744Y879433D01*
X66719Y879878D01*
X67659Y880392D01*
X68560Y880971D01*
X69418Y881613D01*
X70228Y882315D01*
X70985Y883072D01*
X71687Y883882D01*
X72329Y884740D01*
X72908Y885641D01*
X73422Y886581D01*
X73867Y887556D01*
X74241Y888560D01*
X74543Y889588D01*
X74771Y890635D01*
X74924Y891696D01*
X75000Y892764D01*
X75000Y46164D02*
X75000Y47236D01*
X74924Y48304D01*
X74771Y49365D01*
X74543Y50412D01*
X74241Y51440D01*
X73867Y52444D01*
X73422Y53419D01*
X72908Y54359D01*
X72329Y55260D01*
X71687Y56118D01*
X70985Y56928D01*
X70228Y57685D01*
X69418Y58387D01*
X68560Y59029D01*
X67659Y59608D01*
X66719Y60122D01*
X65744Y60567D01*
X64740Y60941D01*
X63712Y61243D01*
X62665Y61471D01*
X61604Y61624D01*
X60536Y61700D01*
X59464Y61700D01*
X58396Y61624D01*
X57335Y61471D01*
X56288Y61243D01*
X55260Y60941D01*
X54256Y60567D01*
X53281Y60122D01*
X52341Y59608D01*
X51440Y59029D01*
X50582Y58387D01*
X49772Y57685D01*
X49015Y56928D01*
X48313Y56118D01*
X47671Y55260D01*
X47092Y54359D01*
X46578Y53419D01*
X46133Y52444D01*
X45759Y51440D01*
X45457Y50412D01*
X45229Y49365D01*
X45076Y48304D01*
X45000Y47236D01*
X45000Y46164D01*
X45076Y45096D01*
X45229Y44035D01*
X45457Y42988D01*
X45759Y41960D01*
X46133Y40956D01*
X46578Y39981D01*
X47092Y39041D01*
X47671Y38140D01*
X48313Y37282D01*
X49015Y36472D01*
X49772Y35715D01*
X50582Y35013D01*
X51440Y34371D01*
X52341Y33792D01*
X53281Y33278D01*
X54256Y32833D01*
X55260Y32459D01*
X56288Y32157D01*
X57335Y31929D01*
X58396Y31776D01*
X59464Y31700D01*
X60536Y31700D01*
X61604Y31776D01*
X62665Y31929D01*
X63712Y32157D01*
X64740Y32459D01*
X65744Y32833D01*
X66719Y33278D01*
X67659Y33792D01*
X68560Y34371D01*
X69418Y35013D01*
X70228Y35715D01*
X70985Y36472D01*
X71687Y37282D01*
X72329Y38140D01*
X72908Y39041D01*
X73422Y39981D01*
X73867Y40956D01*
X74241Y41960D01*
X74543Y42988D01*
X74771Y44035D01*
X74924Y45096D01*
X75000Y46164D01*
M02*
