G04 EAGLE Gerber RS-274X export*
G75*
%MOMM*%
%FSLAX34Y34*%
%LPD*%
%INSolderpaste Top*%
%IPPOS*%
%AMOC8*
5,1,8,0,0,1.08239X$1,22.5*%
G01*
%ADD10R,1.905000X1.270000*%
%ADD11R,1.270000X1.905000*%
%ADD12R,5.500000X2.000000*%
%ADD13R,0.350000X1.500000*%
%ADD14R,1.500000X0.350000*%
%ADD15R,2.540000X1.270000*%
%ADD16R,0.350000X2.500000*%
%ADD17R,2.000000X2.500000*%
%ADD18R,0.600000X1.200000*%
%ADD19R,3.500000X1.600000*%
%ADD20R,1.600000X2.600000*%
%ADD21R,1.400000X1.900000*%
%ADD22R,1.900000X1.400000*%
%ADD23R,1.600200X1.117600*%


D10*
X786127Y400166D03*
X786127Y433186D03*
X813182Y400159D03*
X813182Y433179D03*
D11*
X730352Y250841D03*
X763372Y250841D03*
X806832Y362059D03*
X773812Y362059D03*
D10*
X607874Y281779D03*
X607874Y314799D03*
X580182Y281779D03*
X580182Y314799D03*
X635565Y281779D03*
X635565Y314799D03*
D12*
X836552Y470009D03*
X741552Y470009D03*
X720577Y206985D03*
X625577Y206985D03*
D13*
X487752Y415409D03*
X492752Y415409D03*
X497752Y415409D03*
X502752Y415409D03*
X507752Y415409D03*
X512752Y415409D03*
X517752Y415409D03*
X522752Y415409D03*
X527752Y415409D03*
X532752Y415409D03*
X537752Y415409D03*
X542752Y415409D03*
X547752Y415409D03*
X552752Y415409D03*
X557752Y415409D03*
X562752Y415409D03*
X567752Y415409D03*
X572752Y415409D03*
X577752Y415409D03*
X582752Y415409D03*
X587752Y415409D03*
X592752Y415409D03*
X597752Y415409D03*
X602752Y415409D03*
X607752Y415409D03*
D14*
X627752Y435409D03*
X627752Y440409D03*
X627752Y445409D03*
X627752Y450409D03*
X627752Y455409D03*
X627752Y460409D03*
X627752Y465409D03*
X627752Y470409D03*
X627752Y475409D03*
X627752Y480409D03*
X627752Y485409D03*
X627752Y490409D03*
X627752Y495409D03*
X627752Y500409D03*
X627752Y505409D03*
X627752Y510409D03*
X627752Y515409D03*
X627752Y520409D03*
X627752Y525409D03*
X627752Y530409D03*
X627752Y535409D03*
X627752Y540409D03*
X627752Y545409D03*
X627752Y550409D03*
X627752Y555409D03*
D13*
X607752Y575409D03*
X602752Y575409D03*
X597752Y575409D03*
X592752Y575409D03*
X587752Y575409D03*
X582752Y575409D03*
X577752Y575409D03*
X572752Y575409D03*
X567752Y575409D03*
X562752Y575409D03*
X557752Y575409D03*
X552752Y575409D03*
X547752Y575409D03*
X542752Y575409D03*
X537752Y575409D03*
X532752Y575409D03*
X527752Y575409D03*
X522752Y575409D03*
X517752Y575409D03*
X512752Y575409D03*
X507752Y575409D03*
X502752Y575409D03*
X497752Y575409D03*
X492752Y575409D03*
X487752Y575409D03*
D14*
X467752Y555409D03*
X467752Y550409D03*
X467752Y545409D03*
X467752Y540409D03*
X467752Y535409D03*
X467752Y530409D03*
X467752Y525409D03*
X467752Y520409D03*
X467752Y515409D03*
X467752Y510409D03*
X467752Y505409D03*
X467752Y500409D03*
X467752Y495409D03*
X467752Y490409D03*
X467752Y485409D03*
X467752Y480409D03*
X467752Y475409D03*
X467752Y470409D03*
X467752Y465409D03*
X467752Y460409D03*
X467752Y455409D03*
X467752Y450409D03*
X467752Y445409D03*
X467752Y440409D03*
X467752Y435409D03*
D15*
X662052Y393809D03*
X662052Y368409D03*
X662052Y343009D03*
X716652Y393809D03*
X716652Y368409D03*
X716652Y343009D03*
D10*
X899625Y221347D03*
X899625Y254367D03*
X899625Y166479D03*
X899625Y199499D03*
D11*
X916052Y414129D03*
X883032Y414129D03*
D10*
X410908Y165118D03*
X410908Y132098D03*
X500762Y165209D03*
X500762Y132189D03*
D11*
X743967Y325864D03*
X776987Y325864D03*
D10*
X500762Y191879D03*
X500762Y224899D03*
X536322Y191879D03*
X536322Y224899D03*
X456955Y191879D03*
X456955Y224899D03*
X862077Y291574D03*
X862077Y258554D03*
X456955Y132098D03*
X456955Y165118D03*
X536322Y132189D03*
X536322Y165209D03*
X835407Y291574D03*
X835407Y258554D03*
X931406Y254367D03*
X931406Y221347D03*
X931565Y199762D03*
X931565Y166742D03*
D11*
X304635Y594602D03*
X337655Y594602D03*
D10*
X410908Y191879D03*
X410908Y224899D03*
D16*
X782350Y86477D03*
X774350Y86477D03*
X798350Y86477D03*
X790350Y86477D03*
D17*
X827350Y31477D03*
X737350Y31477D03*
X737350Y86477D03*
X827350Y86477D03*
D16*
X766350Y86477D03*
D18*
X870332Y233849D03*
X857632Y233849D03*
X844932Y233849D03*
X832232Y233849D03*
X819532Y233849D03*
X806832Y233849D03*
X794132Y233849D03*
X781432Y233849D03*
X781432Y177849D03*
X794132Y177849D03*
X806832Y177849D03*
X819532Y177849D03*
X832232Y177849D03*
X844932Y177849D03*
X857632Y177849D03*
X870332Y177849D03*
D10*
X240635Y191879D03*
X240635Y224899D03*
X320224Y191879D03*
X320224Y224899D03*
X365908Y191879D03*
X365908Y224899D03*
X283260Y191879D03*
X283260Y224899D03*
X240635Y165107D03*
X240635Y132087D03*
X325502Y165209D03*
X325502Y132189D03*
X283260Y132334D03*
X283260Y165354D03*
X362332Y132189D03*
X362332Y165209D03*
D11*
X535052Y693529D03*
X502032Y693529D03*
X746637Y691213D03*
X779657Y691213D03*
D10*
X442342Y623649D03*
X442342Y590629D03*
X655702Y698609D03*
X655702Y665589D03*
D19*
X415342Y739249D03*
X469342Y739249D03*
X692202Y739249D03*
X746202Y739249D03*
D10*
X599541Y137938D03*
X599541Y170958D03*
X631385Y137938D03*
X631385Y170958D03*
X1002412Y222359D03*
X1002412Y189339D03*
X1002412Y118219D03*
X1002412Y151239D03*
X1002412Y334119D03*
X1002412Y301099D03*
X1002075Y243825D03*
X1002075Y276845D03*
X1002412Y447149D03*
X1002412Y414129D03*
X1002412Y355709D03*
X1002412Y388729D03*
X1002412Y565259D03*
X1002412Y532239D03*
X1002412Y471279D03*
X1002412Y504299D03*
X1002412Y677019D03*
X1002412Y643999D03*
X1002412Y584309D03*
X1002412Y617329D03*
X1002412Y809492D03*
X1002412Y776472D03*
X1002412Y696069D03*
X1002412Y729089D03*
D11*
X304635Y674612D03*
X337655Y674612D03*
X304635Y762242D03*
X337655Y762242D03*
D10*
X869155Y388269D03*
X869155Y355249D03*
X923672Y600184D03*
X923672Y567164D03*
X923672Y621139D03*
X923672Y654159D03*
D20*
X270399Y613127D03*
X270399Y577127D03*
X270399Y701848D03*
X270399Y665848D03*
X270399Y790569D03*
X270399Y754569D03*
D21*
X971803Y794211D03*
X938803Y794211D03*
D22*
X968471Y765311D03*
X968471Y732311D03*
D10*
X699394Y51107D03*
X699394Y84127D03*
X203384Y289661D03*
X203384Y322681D03*
D11*
X179169Y262406D03*
X146149Y262406D03*
X182422Y765375D03*
X215442Y765375D03*
D23*
X407466Y405965D03*
X407466Y390217D03*
M02*
