M48
;GenerationSoftware,Autodesk,EAGLE,9.4.2*%
;CreationDate,2021-01-11T05:57:35Z*%
FMAT,2
ICI,OFF
METRIC,TZ,000.000
T7C0.813
T6C0.900
T5C1.000
T4C1.016
T3C1.200
T2C1.300
T1C1.397
%
G90
M71
T1
X105821Y7348
X90581Y7348
T2
X64846Y4773
X59846Y4773
T3
X36513Y4100
X24580Y4100
X28080Y4100
X53351Y4100
X41447Y4100
X44947Y4100
X113659Y77876
X113659Y74376
X113659Y70876
X4676Y19878
X113659Y29037
X113659Y25537
X113659Y43967
X113659Y40467
X113659Y36967
X113659Y32537
X113659Y13980
X113659Y17480
X113659Y20980
X19646Y4100
X16146Y4100
X88345Y89979
X113659Y55524
X113659Y52024
X113659Y48524
X113659Y66700
X4676Y23378
X4676Y11874
X4676Y15374
X4676Y35695
X4676Y39195
X4676Y27704
X4676Y31204
X4676Y52390
X4676Y55890
X4676Y44021
X4676Y47521
X4676Y60788
X4676Y64288
X4676Y68811
X4676Y72311
X4676Y76629
X4676Y80129
X44099Y89979
X47599Y89979
X52340Y89979
X55840Y89979
X113659Y63200
X74837Y89979
X79645Y89979
X83145Y89979
X113659Y59700
X49851Y4100
X91845Y89979
X96219Y89979
X71337Y89979
X27108Y89979
X30608Y89979
X35603Y89979
X39103Y89979
X19301Y89979
X22801Y89979
X33013Y4100
X99719Y89979
T4
X54394Y26300
X51854Y26300
X49314Y26300
X45885Y35825
X43345Y35825
X40805Y35825
X37884Y26300
X35344Y26300
X32804Y26300
X80689Y70837
X30645Y35825
X28105Y35825
X25565Y35825
X92812Y74814
X92812Y72274
X92812Y69734
X51854Y72147
X51854Y74687
X54394Y72147
X19713Y64878
X19713Y62338
X19713Y59798
X68089Y14624
X70629Y14624
X73169Y14624
X18311Y16602
X15771Y16602
X13231Y16602
X54394Y74687
X56934Y72147
X56934Y74687
X80689Y73377
X83229Y70837
X83229Y73377
X85769Y70837
X85769Y73377
X76142Y42758
X73602Y42758
X71062Y42758
T5
X9392Y76776
X104786Y17375
X46774Y39635
X38489Y67447
X93142Y27979
X68186Y69574
X60647Y74053
X61252Y80220
X51234Y38111
X64752Y80183
X97287Y11818
X102670Y81239
X25077Y43724
X29837Y44797
X25047Y48093
X18581Y45890
X20955Y56381
X18981Y69124
X20429Y73480
X19591Y79707
X34709Y51611
X80144Y62171
X86272Y62171
X68923Y62920
X54232Y62242
X51846Y62245
X39948Y59079
X96736Y41374
X98093Y16868
X97882Y27790
X61515Y38465
X57506Y22426
X54906Y34613
X20873Y34810
X57403Y34395
X43381Y18469
X66485Y76135
X56940Y11407
X38435Y79585
X99719Y83849
X34307Y23070
X71285Y69327
X48685Y71377
X29837Y47120
X29248Y51734
X97679Y51717
X97779Y61547
X100233Y75097
X54658Y37945
X34310Y18606
X62284Y40679
X26499Y28758
X68557Y55557
X65612Y41398
X104475Y84945
X78003Y75304
X34876Y79611
X12177Y9015
X67124Y43114
X20955Y53224
X71793Y31888
X70523Y25665
X39857Y62524
X15632Y85620
T6
X46139Y79005
X43599Y79005
X41059Y79005
X68745Y66305
X71285Y66305
X73825Y66305
X76365Y66305
X78905Y66305
X56299Y66305
X81445Y66305
X83985Y66305
X86525Y66305
X86525Y79005
X83985Y79005
X81445Y79005
X78905Y79005
X76365Y79005
X73825Y79005
X71285Y79005
X68745Y79005
X53759Y66305
X51219Y66305
X48679Y66305
X46139Y66305
X43599Y66305
X41059Y66305
X58839Y66305
X58839Y79005
X56299Y79005
X53759Y79005
X51219Y79005
X48679Y79005
T7
X23373Y74836
X23373Y67216
M30